<?xml version="1.0" encoding="utf-8"?>
<!-- Generator: Adobe Illustrator 22.0.1, SVG Export Plug-In . SVG Version: 6.00 Build 0)  -->
<svg version="1.1" id="Livello_1" xmlns="http://www.w3.org/2000/svg" xmlns:xlink="http://www.w3.org/1999/xlink" x="0px" y="0px"
	 viewBox="0 0 301.6 112.6" style="enable-background:new 0 0 301.6 112.6;" xml:space="preserve">
<style type="text/css">
	.st0{fill:#1B9DD9;}
	.st1{fill:#020203;}
</style>
<g>
	<g>
		<path class="st0" d="M120.2,4.5c-3.2,1-6.4,1.9-9.5,2.9c-3.2,1-6.3,2.1-9.4,3.2c-3.1,1.1-6.2,2.3-9.2,3.7c-1.5,0.7-3,1.4-4.3,2.2
			c-1.4,0.8-2.7,1.7-3.7,2.7c-0.1,0.1-0.2,0.3-0.3,0.4l-0.1,0.2l0,0l0,0c0,0,0-0.1,0.1-0.1v-0.1c0-0.1,0-0.2,0-0.3
			c0-0.2,0-0.4-0.1-0.6s-0.2-0.3-0.3-0.3l-0.1-0.1l0,0h-0.1l0,0h0.1c0.1,0,0.3,0,0.5,0c0.7,0,1.5,0,2.3-0.1c1.6-0.1,3.3-0.3,4.9-0.5
			c3.3-0.4,6.6-0.9,9.8-1.3c6.6-1,13.1-2,19.7-3.1l39.4-6.5l19.7-3.3c6.6-1.1,13.1-2.2,19.6-3.5c-3.2,1-6.4,1.8-9.7,2.6l-9.7,2.3
			c-6.5,1.5-13,2.9-19.5,4.2c-6.5,1.3-13.1,2.6-19.6,3.8c-6.5,1.2-13.1,2.4-19.7,3.5s-13.2,2.1-19.8,3c-3.3,0.5-6.6,0.9-9.9,1.2
			c-1.7,0.2-3.3,0.3-5,0.4c-0.9,0-1.7,0.1-2.6,0c-0.2,0-0.5,0-0.8-0.1c-0.2,0-0.3,0-0.5-0.1l-0.2-0.1c-0.1,0-0.2-0.1-0.2-0.1
			l-0.1-0.1c-0.1,0-0.1-0.1-0.2-0.1c-0.1-0.1-0.2-0.2-0.4-0.4c-0.1-0.2-0.2-0.5-0.2-0.7c0-0.1,0-0.3,0.1-0.4c0-0.1,0.1-0.1,0.1-0.2
			s0.1-0.1,0.1-0.2s0.1-0.1,0.1-0.1l0.1-0.1l0.2-0.3c0.2-0.2,0.3-0.4,0.5-0.5c1.4-1.3,2.9-2.2,4.4-3s3.1-1.5,4.6-2.1
			c3.1-1.3,6.3-2.3,9.5-3.2c3.2-1,6.5-1.7,9.7-2.5C113.6,5.7,116.9,5,120.2,4.5z"/>
	</g>
	<g>
		<path class="st1" d="M91.9,22.4c-1.2,0.9-2.3,1.8-3.2,2.9c-0.5,0.5-0.9,1.1-1.1,1.6c-0.2,0.6-0.3,1.1-0.1,1.4
			c0.1,0.3,0.5,0.6,0.9,0.9s1,0.5,1.6,0.7c1.2,0.4,2.6,0.6,4,0.8c2.8,0.4,5.6,0.6,8.5,0.7s5.8,0.2,8.7,0.2c11.6,0,23.2-0.4,34.8-1
			c11.6-0.6,23.3-1.4,34.9-2.1c11.7-0.7,23.4-1.4,35.2-1.6c-11.4,3.3-22.9,5.7-34.5,7.6c-11.6,1.8-23.4,3.2-35.2,3.8
			c-11.8,0.7-23.7,0.6-35.5-0.5c-5.9-0.6-11.9-1.4-17.7-3.1c-1.5-0.4-2.9-1-4.4-1.7c-1.4-0.8-3.2-1.9-3.6-4.2
			c-0.1-1.1,0.3-2.1,0.9-2.8c0.5-0.7,1.2-1.2,1.8-1.6C89.1,23.5,90.5,22.8,91.9,22.4z"/>
	</g>
	<g>
		<path class="st1" d="M92.1,36.7c1,1.9,2.5,3.4,4.1,4.7c1.6,1.3,3.4,2.3,5.2,3.1c3.7,1.6,7.7,2.7,11.7,3.3c4.1,0.6,8.3,0.9,12.5,1
			c4.2,0.2,8.5,0.2,12.8,0.3c-4.1,1.5-8.4,2.3-12.7,2.7c-4.3,0.4-8.8,0.4-13.1-0.3c-4.4-0.6-8.7-2.1-12.6-4.5
			c-1.9-1.2-3.7-2.7-5.1-4.4C93.5,40.9,92.3,38.8,92.1,36.7z"/>
	</g>
</g>
<g>
	<g>
		<path class="st0" d="M15.9,53.7h7.6l16.1,37.7H31L27.6,83H11.8l-3.4,8.4H0L15.9,53.7z M24.6,75.8l-5-12.1l-5,12.1H24.6z"/>
		<path class="st0" d="M35.8,54h8.9l9.8,15.8L64.3,54h8.9v37.5H65V67L54.5,83h-0.2L43.9,67.2v24.3h-8.1V54z"/>
		<path class="st1" d="M91.1,70.5h-8v-5.3h21.8v5.3h-8v20.9h-5.8V70.5z"/>
		<path class="st1" d="M103.8,81.5L103.8,81.5c0-5.8,4.1-10.5,9.9-10.5c6.7,0,9.8,5.2,9.8,10.9c0,0.4,0,1-0.1,1.5h-14
			c0.6,2.6,2.4,3.9,4.9,3.9c1.9,0,3.3-0.6,4.9-2.1l3.3,2.9c-1.9,2.3-4.6,3.8-8.2,3.8C108.3,91.9,103.8,87.7,103.8,81.5z M118,79.8
			c-0.3-2.6-1.8-4.3-4.2-4.3c-2.4,0-3.9,1.7-4.4,4.3H118z"/>
		<path class="st1" d="M126.8,81.5L126.8,81.5c0-5.8,4.4-10.5,10.5-10.5c3.8,0,6.2,1.3,8,3.4l-3.5,3.8c-1.3-1.4-2.6-2.2-4.6-2.2
			c-2.9,0-4.9,2.5-4.9,5.5v0.1c0,3.1,2,5.6,5.1,5.6c1.9,0,3.2-0.8,4.6-2.1l3.3,3.4c-2,2.1-4.2,3.7-8.2,3.7
			C131.2,91.9,126.8,87.3,126.8,81.5z"/>
		<path class="st1" d="M149.2,64.1h5.7v10.1c1.3-1.7,3-3.2,5.9-3.2c4.3,0,6.8,2.9,6.8,7.5v13h-5.7V80.3c0-2.7-1.3-4.1-3.5-4.1
			s-3.6,1.4-3.6,4.1v11.2h-5.7V64.1H149.2z"/>
		<path class="st1" d="M172.6,71.4h5.7v2.9c1.3-1.7,3-3.2,5.9-3.2c4.3,0,6.8,2.9,6.8,7.5v13h-5.7V80.4c0-2.7-1.3-4.1-3.5-4.1
			s-3.6,1.4-3.6,4.1v11.2h-5.7V71.4H172.6z"/>
		<path class="st1" d="M195,81.5L195,81.5c0-5.9,4.7-10.5,10.9-10.5c6.2,0,10.8,4.6,10.8,10.4v0.1c0,5.8-4.7,10.5-10.9,10.5
			C199.6,91.9,195,87.3,195,81.5z M211.2,81.5L211.2,81.5c0-3-2.1-5.6-5.3-5.6c-3.3,0-5.2,2.5-5.2,5.5v0.1c0,3,2.1,5.6,5.3,5.6
			C209.2,87,211.2,84.5,211.2,81.5z"/>
		<path class="st1" d="M221.2,64.1h5.7v27.4h-5.7V64.1z"/>
		<path class="st1" d="M231.3,81.5L231.3,81.5c0-5.9,4.7-10.5,10.9-10.5c6.2,0,10.8,4.6,10.8,10.4v0.1c0,5.8-4.7,10.5-10.9,10.5
			C235.9,91.9,231.3,87.3,231.3,81.5z M247.4,81.5L247.4,81.5c0-3-2.1-5.6-5.3-5.6c-3.3,0-5.2,2.5-5.2,5.5v0.1c0,3,2.1,5.6,5.3,5.6
			C245.5,87,247.4,84.5,247.4,81.5z"/>
		<path class="st1" d="M257.3,95.5l2-4.3c2.1,1.2,4.1,1.8,6.8,1.8c3.9,0,5.7-1.9,5.7-5.5v-1c-1.7,2-3.5,3.3-6.6,3.3
			c-4.7,0-8.9-3.4-8.9-9.4v-0.1c0-6,4.3-9.4,8.9-9.4c3.1,0,5,1.3,6.5,3v-2.6h5.7v15.6c0,3.6-0.9,6.2-2.6,7.9
			c-1.9,1.9-4.8,2.7-8.7,2.7C262.9,97.6,259.9,96.8,257.3,95.5z M271.8,80.4L271.8,80.4c0-2.8-2.1-4.7-4.9-4.7s-4.9,1.9-4.9,4.6v0.1
			c0,2.8,2.1,4.7,4.9,4.7C269.6,85.1,271.8,83.2,271.8,80.4z"/>
		<path class="st1" d="M282.3,96.2l1.9-4.1c0.7,0.5,1.7,0.8,2.4,0.8c1,0,1.5-0.3,2-1.3l-7.9-20.2h6l4.6,13.7l4.4-13.7h5.9L293.9,92
			c-1.5,4.1-3.2,5.6-6.6,5.6C285.3,97.6,283.7,97.1,282.3,96.2z"/>
	</g>
	<g>
		<path class="st1" d="M4.8,112.5H3.6v-9.4H0.1V102h8.2v1.1H4.8V112.5z"/>
		<path class="st1" d="M16.2,107.8v4.7H15V102h1.2v4.7h6.1V102h1.2v10.5h-1.2v-4.7H16.2z"/>
		<path class="st1" d="M38.5,103.1h-6.4v3.6h5.7v1.1h-5.7v3.7h6.5v1.1h-7.7v-10.5h7.6L38.5,103.1L38.5,103.1z"/>
		<path class="st0" d="M61.6,110.8c-0.2,0.4-0.5,0.7-0.8,1s-0.7,0.5-1.2,0.6s-1,0.2-1.6,0.2c-0.8,0-1.6-0.1-2.4-0.4
			c-0.8-0.3-1.5-0.7-2.1-1.3l1.4-1.6c0.5,0.4,1,0.7,1.5,0.9c0.5,0.2,1.1,0.3,1.7,0.3c0.5,0,0.9-0.1,1.1-0.3s0.4-0.4,0.4-0.7l0,0
			c0-0.1,0-0.3-0.1-0.4s-0.2-0.2-0.3-0.3s-0.4-0.2-0.6-0.3c-0.3-0.1-0.6-0.2-1.1-0.3c-0.5-0.1-1-0.3-1.4-0.4s-0.8-0.4-1.1-0.6
			s-0.5-0.5-0.7-0.9c-0.2-0.3-0.2-0.8-0.2-1.3l0,0c0-0.5,0.1-0.9,0.3-1.3s0.4-0.7,0.8-1c0.3-0.3,0.7-0.5,1.2-0.6
			c0.4-0.2,0.9-0.2,1.5-0.2c0.8,0,1.5,0.1,2.1,0.3c0.6,0.2,1.2,0.6,1.8,1l-1.2,1.7c-0.5-0.3-0.9-0.6-1.4-0.8
			c-0.4-0.2-0.9-0.3-1.4-0.3c-0.4,0-0.8,0.1-1,0.3s-0.3,0.4-0.3,0.7l0,0c0,0.2,0,0.3,0.1,0.4s0.2,0.2,0.4,0.3
			c0.2,0.1,0.4,0.2,0.7,0.3c0.3,0.1,0.7,0.2,1.1,0.3c0.5,0.1,1,0.3,1.4,0.5s0.8,0.4,1.1,0.6s0.5,0.5,0.6,0.9s0.2,0.7,0.2,1.2l0,0
			C61.9,109.9,61.8,110.4,61.6,110.8z"/>
		<path class="st0" d="M68.5,112.5V102h2.3v10.5H68.5z"/>
		<path class="st0" d="M86.1,112.5v-6.8l-3,4.5H83l-2.9-4.4v6.8h-2.3v-10.5h2.5l2.8,4.4l2.8-4.4h2.5v10.5h-2.3V112.5z"/>
		<path class="st0" d="M103.4,107.3c-0.2,0.5-0.5,0.8-0.9,1.2c-0.4,0.3-0.8,0.5-1.4,0.7c-0.5,0.2-1.1,0.2-1.7,0.2h-1.8v3.2h-2.3
			v-10.5h4.3c0.6,0,1.2,0.1,1.7,0.3c0.5,0.2,0.9,0.4,1.3,0.7c0.3,0.3,0.6,0.7,0.8,1.1s0.3,0.9,0.3,1.5l0,0
			C103.7,106.3,103.6,106.8,103.4,107.3z M101.4,105.7c0-0.5-0.2-0.9-0.5-1.2c-0.3-0.3-0.8-0.4-1.4-0.4h-1.8v3.2h1.8
			c0.6,0,1-0.2,1.4-0.5C101.2,106.6,101.4,106.2,101.4,105.7L101.4,105.7z"/>
		<path class="st0" d="M110,112.5V102h2.3v8.4h5.2v2.1H110z"/>
		<path class="st0" d="M123.7,112.5V102h7.9v2.1H126v2.1h5v2.1h-5v2.2h5.7v2.1h-8V112.5z"/>
		<path class="st0" d="M144.7,112.5l-2.2-3.4h-1.8v3.4h-2.3V102h4.8c1.2,0,2.2,0.3,2.9,0.9c0.7,0.6,1,1.5,1,2.5l0,0
			c0,0.8-0.2,1.5-0.6,2.1c-0.4,0.5-1,0.9-1.6,1.2l2.6,3.8H144.7z M144.7,105.6c0-0.5-0.2-0.9-0.5-1.1s-0.8-0.4-1.3-0.4h-2.3v3h2.3
			c0.6,0,1-0.1,1.3-0.4C144.6,106.4,144.7,106.1,144.7,105.6L144.7,105.6z"/>
		<path class="st1" d="M168.7,102.2c0.4,0.1,0.8,0.3,1.1,0.5c0.3,0.2,0.5,0.5,0.7,0.8s0.2,0.7,0.2,1.1s0,0.7-0.1,0.9
			s-0.2,0.5-0.4,0.7c-0.2,0.2-0.3,0.4-0.5,0.5s-0.4,0.2-0.6,0.3c0.3,0.1,0.6,0.2,0.9,0.4c0.3,0.1,0.5,0.3,0.7,0.5s0.4,0.4,0.5,0.7
			s0.2,0.6,0.2,1c0,0.5-0.1,0.9-0.3,1.2s-0.4,0.7-0.8,0.9c-0.3,0.2-0.7,0.4-1.2,0.6c-0.5,0.1-1,0.2-1.6,0.2h-4.7V102h4.5
			C167.8,102,168.3,102.1,168.7,102.2z M168.9,106.2c0.4-0.3,0.7-0.8,0.7-1.4c0-0.5-0.2-1-0.6-1.3s-1-0.5-1.7-0.5h-3.2v3.6h3.1
			C167.9,106.7,168.4,106.5,168.9,106.2z M169.4,111c0.5-0.3,0.7-0.8,0.7-1.4s-0.2-1-0.7-1.3s-1.2-0.5-2.1-0.5H164v3.7h3.5
			C168.4,111.5,169,111.3,169.4,111z"/>
		<path class="st1" d="M185.8,103.1h-6.4v3.6h5.7v1.1h-5.7v3.7h6.5v1.1h-7.7v-10.5h7.6V103.1z"/>
		<path class="st1" d="M196.7,112.5h-1.2v-9.4H192V102h8.2v1.1h-3.5V112.5z"/>
		<path class="st1" d="M210.9,112.5h-1.2v-9.4h-3.5V102h8.2v1.1h-3.5V112.5z"/>
		<path class="st1" d="M228.8,103.1h-6.4v3.6h5.7v1.1h-5.7v3.7h6.5v1.1h-7.7v-10.5h7.6V103.1z"/>
		<path class="st1" d="M243,112.5l-3-4.1h-3v4.1h-1.2V102h4.5c0.6,0,1.1,0.1,1.6,0.2s0.9,0.4,1.2,0.6c0.3,0.3,0.6,0.6,0.8,1
			c0.2,0.4,0.3,0.8,0.3,1.3c0,0.4-0.1,0.8-0.2,1.2c-0.1,0.3-0.3,0.6-0.6,0.9c-0.3,0.3-0.6,0.5-0.9,0.6c-0.4,0.2-0.7,0.3-1.1,0.4
			l3.2,4.3H243z M242.1,103.7c-0.5-0.4-1.1-0.5-2-0.5h-3.2v4.3h3.2c0.4,0,0.8,0,1.1-0.2s0.6-0.2,0.9-0.4s0.4-0.4,0.6-0.7
			c0.1-0.3,0.2-0.6,0.2-0.9C242.9,104.5,242.6,104,242.1,103.7z"/>
	</g>
</g>
</svg>
